<svg id="Layer_1" enable-background="new 0 0 512 512" height="512" viewBox="0 0 512 512" width="512" xmlns="http://www.w3.org/2000/svg"><path d="m504 495.952h-240v-81.138c9.531-2.778 17.135-10.418 19.642-20.444l2.604-10.418h63.45c33.499 0 46.99-43.285 19.672-62.408l-65.363-45.754c.149-54.359 3.263-49.089 11.273-82.248 10.523-18.723 2.748-3.757 33.567-65.383 7.711-15.422 4.698-33.978-7.499-46.174-.809-.81 3.157 1.908-46.627-31.173l-10.068-30.205c-9.153-27.52-48.222-27.3-57.3-.004l-10.07 30.209c-49.53 32.913-45.817 30.361-46.627 31.173-11.097 11.097-14.683 27.742-9.136 42.407 1.563 4.133 6.179 6.215 10.313 4.652 4.133-1.563 6.216-6.18 4.652-10.312-3.238-8.562-1.282-18.251 4.968-24.901 50.344-33.453 48.902-31.64 50.139-35.349l10.941-32.824c.947-2.847 2.731-5.274 5.167-7.026.437-.313.302-4.376.302 37.321-2.122 0-4.157.843-5.657 2.343l-48 48c-2.479 2.479-3.055 6.283-1.422 9.384l20.917 39.718c2.656 5.379 1.874 12.047 2.321 14.192.65 3.124 3.128 5.574 6.222 6.201 1.357.277 66.058.159 66.452.121 3.996-.379 7.063-3.744 7.183-7.715.29-9.461 2.507-11.402 23.139-52.666 1.54-3.08.937-6.8-1.499-9.234l-48-48c-1.5-1.5-3.535-2.343-5.657-2.343 0-41.695-.134-37.636.31-37.314 4.941 3.552 4.316 4.49 16.101 39.844 1.215 3.645-.379 1.781 50.139 35.35 6.885 7.319 8.5 18.142 3.985 27.172l-25.503 50.994c-8.922 15.875-8.315 14.783-8.461 15.084-.701 1.435-.511 1.829-.611 1.729-8.268 34.624-11.959 29.258-11.959 91.139 0 1.798.625 3.588 1.766 5.007 1.079 1.344-3.148-1.809 70.427 49.693 14.608 10.225 7.35 33.3-10.497 33.3h-29.696v-16h8c4.418 0 8-3.582 8-8s-3.582-8-8-8h-14.879l-54.923-15.692c-5.121-1.461-10.198 2.393-10.198 7.692v104h-17.648c-8.116-60.112-14.735-92.107-7.469-144h33.117c4.418 0 8-3.582 8-8s-3.582-8-8-8h-32.023c-.32-53.481-4.045-50.094-11.936-83.138-.374-1.557-.33-1.258-5.596-10.63-2.165-3.852-7.042-5.22-10.893-3.056-3.852 2.164-5.22 7.041-3.056 10.893l4.226 7.522c8.171 33.834 11.256 27.646 11.278 85.809-9.677 60.629-1.347 96.65 11.719 193.425l-14.136 3.534c-10.023 2.505-17.64 10.115-20.42 19.642h-177.163c-4.418 0-8 3.582-8 8s3.582 8 8 8h496c4.418 0 8-3.582 8-8s-3.582-8.001-8-8.001zm-240-415.258c-5.118-.958-10.546-1.021-16 0 0-11.629 16-11.693 16 0zm-22.62 70.522c-5.033-11.416-9.38-19.808-9.38-34.173 0-6.404 3.288-12.796 9.918-17.052 1.306-.322 2.483-.962 3.447-1.837 6.725-2.936 14.543-2.937 21.268 0 .965.875 2.142 1.516 3.448 1.837 6.629 4.255 9.918 10.647 9.918 17.052 0 14.414-4.444 22.976-9.383 34.18-5.099 11.598-24.131 11.602-29.236-.007zm-31.555-37.776 8.259-8.258c-2.419 6.686-2.488 12.953-1.511 21.07zm84.091-8.259 8.35 8.35c-13.671 27.342-1.898 9.479-8.35-8.35zm-29.916 246.771h40v16h-24c-3.671 0-6.871 2.499-7.761 6.06-4.21 16.84-4.108 19.607-8.239 23.049zm-61.109 144c3.617-4.34 6.901-4.201 27.654-9.39 3.954-.989 6.533-4.792 5.988-8.832l-4.021-29.779h15.488v48h-45.109z"/><path d="m184.846 161.644c5.878 0 9.826-6.226 7.149-11.58l-1.69-3.38c-1.975-3.952-6.779-5.554-10.733-3.578-3.952 1.976-5.554 6.781-3.578 10.733 1.725 3.449 3.268 7.805 8.852 7.805z"/></svg>