<svg id="Layer_3" enable-background="new 0 0 64 64" height="512" viewBox="0 0 64 64" width="512" xmlns="http://www.w3.org/2000/svg"><path d="m49 41.184v-22.184c0-5.505-2.589-10.51-6.907-13.677-2.55-2.658-6.127-4.323-10.093-4.323-3.965 0-7.542 1.664-10.092 4.322-4.318 3.168-6.908 8.173-6.908 13.678v22.184c-1.161.414-2 1.514-2 2.816v2h2v-2c0-.552.449-1 1-1s1 .448 1 1v2h2v-2c0-1.302-.839-2.402-2-2.816v-22.184c0-1.996.393-3.916 1.111-5.682-.067.552-.111 1.112-.111 1.682 0 7.72 6.28 14 14 14s14-6.28 14-14c0-.571-.045-1.13-.111-1.683.718 1.767 1.111 3.686 1.111 5.683v22.184c-1.161.414-2 1.514-2 2.816v2h2v-2c0-.552.449-1 1-1s1 .448 1 1v2h2v-2c0-1.302-.839-2.402-2-2.816zm-17-38.184c4.962 0 9 4.037 9 9s-4.038 9-9 9-9-4.037-9-9 4.038-9 9-9zm0 24c-6.617 0-12-5.383-12-12 0-1.897.454-3.686 1.241-5.282-.156.737-.241 1.499-.241 2.282 0 6.065 4.935 11 11 11s11-4.935 11-11c0-.783-.085-1.545-.241-2.282.787 1.596 1.241 3.385 1.241 5.282 0 6.617-5.383 12-12 12z"/><path d="m16 63c-2.206 0-4-1.794-4-4v-14h8v14c0 2.206-1.794 4-4 4z" fill="#f0bc5e"/><path d="m12 49h8v2h-8z"/><path d="m12 53h8v2h-8z"/><path d="m12 57h8v2h-8z"/><path d="m48 63c-2.206 0-4-1.794-4-4v-14h8v14c0 2.206-1.794 4-4 4z" fill="#f0bc5e"/><path d="m44 49h8v2h-8z"/><path d="m44 53h8v2h-8z"/><path d="m44 57h8v2h-8z"/></svg>