<svg height="512" viewBox="0 0 512 512" width="512" xmlns="http://www.w3.org/2000/svg"><path d="m307.211 126.2a7.991 7.991 0 0 1 -7.547-5.351l-3.1-8.828a233.1 233.1 0 0 1 -8.564-62.482v-11.078a8 8 0 0 1 16 0v11.078a216.852 216.852 0 0 0 7.82 57.695l2.938 8.313a7.991 7.991 0 0 1 -4.9 10.2 7.821 7.821 0 0 1 -2.647.453z" fill="#b9b9b9"/><path d="m328 46.461h-64a8 8 0 0 1 0-16h64a8 8 0 0 1 0 16z" fill="#787d82"/><path d="m266.169 159.009 37.938-49.645 55.673 28.364-18.965 14.24-59.69 11.641z" fill="#bb4033"/><path d="m128 384-50.243 35.2a16 16 0 0 0 -5.757 12.294v24.506a16 16 0 0 0 16 16 16 16 0 0 0 16-16v-16l56.782-42.586a16 16 0 0 0 6.32-14.392l-7.102-44.322v-26.7h-48v25.837a32 32 0 0 0 2.289 11.885z" fill="#efb58b"/><path d="m114.289 349.722 6.27 15.674 44.289-4.921-4.848-32.475v-16h-48v25.837a32 32 0 0 0 2.289 11.885z" fill="#3474a6"/><path d="m221.246 228.451a24.563 24.563 0 0 0 -4.634 7.142l-21.23 22.388 23.218 22.019 11.01-11.61.157-.057a24.749 24.749 0 1 0 -8.523-39.882z" fill="#3e8cc7"/><path d="m289.8 145.582h96a0 0 0 0 1 0 0v176a48 48 0 0 1 -48 48 48 48 0 0 1 -48-48v-176a0 0 0 0 1 0 0z" fill="#de4c3b" transform="matrix(.975 -.222 .222 .975 -48.696 81.292)"/><path d="m255.224 214.448a24.534 24.534 0 0 0 -8.37 1.552h-30.854v32h16l.149.075a24.749 24.749 0 1 0 23.075-33.627z" fill="#4298d1"/><path d="m112 240h48v72h-48z" fill="#f7bb8f"/><path d="m112 240h48v15.273h-48z" fill="#efb58b"/><path d="m192 432h32a0 0 0 0 1 0 0v40a0 0 0 0 1 0 0h-16a16 16 0 0 1 -16-16v-24a0 0 0 0 1 0 0z" fill="#ebebeb"/><path d="m224 440h16a16 16 0 0 1 16 16 16 16 0 0 1 -16 16h-16z" fill="#f7bb8f"/><path d="m91.015 408.154-13.258 11.046a16 16 0 0 0 -5.757 12.294v8.506h32l5.439-3.885z" fill="#ebebeb"/><path d="m160 264 24 8 11.69-14.09 22.61 21.453-19.941 18.678a16 16 0 0 1 -14.819 3.845l-23.54-5.886z" fill="#efb58b"/><path d="m320.781 146.594 30.149 132.617a8.016 8.016 0 0 1 -6.032 9.578 8.164 8.164 0 0 1 -1.781.195 8.009 8.009 0 0 1 -7.8-6.226l-30.145-132.617z" fill="#b9b9b9"/><path d="m261.82 105.594a233.911 233.911 0 0 1 -4.312-33.133l15.969-.922a219.372 219.372 0 0 0 4.015 30.867z" fill="#fbeebd"/><path d="m418.768 255.685h16.003v24.631h-16.003z" fill="#fbeebd" transform="matrix(.974 -.225 .225 .974 -49.337 102.838)"/><path d="m419.578 383.156-7.156-14.312a37.325 37.325 0 0 0 19.734-41.906l-3.031-13.138 15.594-3.594 3.031 13.141a53.287 53.287 0 0 1 -28.172 59.809z" fill="#fbeebd"/><g fill="#bef5fa"><path d="m233.125 176h16v16h-16z"/><path d="m201.125 176h14.875v16h-14.875z"/><path d="m264 312h17.125v16h-17.125z"/><path d="m216 312h33.125v16h-33.125z"/></g><path d="m295.122 264.985h96v32h-96z" fill="#bb4033" transform="matrix(.975 -.222 .222 .975 -53.751 83.053)"/><path d="m102.769 216.872h113.231a0 0 0 0 1 0 0v30.4a0 0 0 0 1 0 0h-113.231a15.2 15.2 0 0 1 -15.2-15.2 15.2 15.2 0 0 1 15.2-15.2z" fill="#f7bb8f"/><path d="m112 312h48v16l55.155 27.578a16 16 0 0 1 8.845 14.311v62.111h-32v-48l-69.942-27.977a16 16 0 0 1 -10.058-14.856z" fill="#f7bb8f"/><path d="m160 368 24-24 2.461-2.769-26.461-13.231v-16h-48v29.167a16 16 0 0 0 10.058 14.856l35.773 14.31z" fill="#3e8cc7"/><circle cx="136" cy="187.75" fill="#f7bb8f" r="28"/><path d="m88 203.5a8 8 0 0 1 -5.609-13.7l10.593-10.43-10.976-12.4a8 8 0 1 1 11.984-10.6l16 18.086a8 8 0 0 1 -.383 11l-16 15.75a7.976 7.976 0 0 1 -5.609 2.294z" fill="#3e8cc7"/><path d="m108.378 184h55.244a27.856 27.856 0 0 0 -55.244 0z" fill="#844b02"/><path d="m168.008 195.75a7.238 7.238 0 0 1 -.985-.062l-65.125-8a8 8 0 0 1 -6.96-8.915 7.846 7.846 0 0 1 8.914-6.961l65.125 8a8 8 0 0 1 -.969 15.938z" fill="#3e8cc7"/></svg>