<svg height="511pt" viewBox="-38 0 511 511.23204" width="511pt" xmlns="http://www.w3.org/2000/svg"><path d="m286.015625 186.964844c-11.402344 3.714844-23.691406 3.6875-35.074219-.085938-17.480468-6.089844-32.253906-18.144531-41.726562-34.046875h-8.535156v-34.132812c2.0625-5.199219 4.695312-10.148438 7.851562-14.761719 5.535156-8.929688 13.925781-15.726562 23.808594-19.285156.085937-.085938.085937-.085938.171875-.085938 19.285156-5.632812 43.261719 11.945313 27.902343 42.664063-8.53125 17.066406 6.144532 56.152343 25.601563 59.734375zm0 0" fill="#61443c"/><path d="m264.679688 184.234375c-4.425782 1.550781-9.054688 2.441406-13.738282 2.644531-17.480468-6.089844-32.253906-18.144531-41.726562-34.046875h-8.535156v-34.132812c2.0625-5.199219 4.695312-10.148438 7.851562-14.761719 5.535156-8.929688 13.925781-15.726562 23.808594-19.285156 10.496094 6.398437 16.382812 20.5625 6.742187 39.847656-8.535156 17.066406 6.144531 56.152344 25.597657 59.734375zm0 0" fill="#8b685a"/><g fill="#ffe4be"><path d="m183.613281 195.242188c-1.238281.171874-19.625.257812-20.949219.257812-22.464843-1.128906-39.796874-20.195312-38.78125-42.667969-1.015624-22.472656 16.316407-41.539062 38.78125-42.667969 1.324219 0 19.710938.085938 20.949219.257813zm0 0"/><path d="m426.8125 481.367188c0 11.78125-9.550781 21.332031-21.332031 21.332031h-42.667969v-42.667969h42.667969c11.78125 0 21.332031 9.550781 21.332031 21.335938zm0 0"/><path d="m52.714844 459.433594-1.367188 23.125c-.667968 11.300781-10.015625 20.125-21.332031 20.140625h-1.195313c-11.765624-.691407-20.765624-10.757813-20.140624-22.527344l1.707031-28.84375 2.5625-8.363281 34.132812 8.535156zm0 0"/></g><path d="m354.28125 460.03125h-90.453125l-43.351563-70.398438c3.941407-8.710937 5.921876-18.175781 5.804688-27.734374.9375-15.953126-5.324219-31.484376-17.066406-42.324219v-21.675781h-76.800782l4.4375 22.1875 3.667969 18.347656-10.324219-2.390625-16.554687-3.925781-70.230469-16.554688c-5.289062-1.28125-10.871094-.421875-15.527344 2.390625-.757812.34375-1.476562.773437-2.136718 1.277344-5.058594 3.765625-8.183594 9.578125-8.53125 15.875l-6.828125 116.222656 2.5625.171875 14.503906 2.898438 25.261719 5.035156 5.375-90.621094.339844-5.890625 111.703124 26.199219 63.570313 103.421875c3.886719 6.3125 10.765625 10.15625 18.179687 10.15625h128v-42.667969zm0 0" fill="#00b7f6"/><path d="m263.828125 460.03125h-25.601563l-43.347656-70.398438c3.9375-8.710937 5.917969-18.175781 5.800782-27.734374.9375-15.953126-5.324219-31.484376-17.066407-42.324219v-21.675781h25.601563v21.675781c11.742187 10.839843 18.003906 26.371093 17.066406 42.324219.117188 9.558593-1.863281 19.023437-5.804688 27.734374zm0 0" fill="#008ac7"/><path d="m354.28125 460.03125h25.601562v42.667969h-25.601562zm0 0" fill="#008ac7"/><path d="m209.214844 29.867188v208.296874c-34.132813 17.066407-42.667969-17.066406-42.667969-17.066406v-191.230468c0-11.78125 9.550781-21.332032 21.335937-21.332032 11.78125 0 21.332032 9.550782 21.332032 21.332032zm0 0" fill="#ffe4be"/><path d="m209.214844 238.164062v59.734376c-15.054688 6.855468-31.761719 9.226562-48.128906 6.828124-9.792969-1.132812-19.417969-3.421874-28.671876-6.828124l-4.4375-22.273438c-1.722656-11.28125 2.125-22.695312 10.324219-30.632812 7.636719-9.289063 17.296875-16.703126 28.246094-21.675782v-2.21875c2.359375 9.007813 8.617187 16.488282 17.066406 20.394532 8.617188 2.589843 17.933594 1.378906 25.601563-3.328126zm0 0" fill="#bc2b6a"/><path d="m183.613281 241.492188v56.40625c-7.089843 3.480468-14.699219 5.785156-22.527343 6.828124-9.792969-1.132812-19.417969-3.421874-28.671876-6.828124l-4.4375-22.273438c-1.722656-11.28125 2.125-22.695312 10.324219-30.632812 7.636719-9.289063 17.296875-16.703126 28.246094-21.675782v-2.21875c2.359375 9.007813 8.617187 16.488282 17.066406 20.394532zm0 0" fill="#ef3a76"/><path d="m405.480469 451.5h-136.890625l-38.605469-62.703125c3.226563-8.601563 4.863281-17.714844 4.828125-26.898437.671875-17.101563-5.523438-33.757813-17.203125-46.265626 0-.230468.136719-.429687.136719-.667968v-138.589844c13.535156 13.707031 31.941406 21.496094 51.203125 21.675781 6.875.09375 13.71875-.972656 20.238281-3.15625 3.539062-1.410156 5.714844-4.992187 5.332031-8.78125-.378906-3.789062-3.222656-6.867187-6.96875-7.542969-6.976562-2.859374-12.441406-8.496093-15.078125-15.558593-5.628906-9.65625-7.21875-21.144531-4.421875-31.964844 8.304688-16.613281 7.679688-32.632813-1.78125-43.957031-8.910156-10.335938-23.027343-14.523438-36.132812-10.714844-4.457031 1.265625-8.652344 3.3125-12.390625 6.046875v-52.554687c0-10.671876-5.691406-20.53125-14.933594-25.867188-9.238281-5.332031-20.625-5.332031-29.863281 0-9.242188 5.335938-14.933594 15.195312-14.933594 25.867188v72.019531c-25.105469 3.671875-43.460937 25.589843-42.667969 50.945312-.792968 25.355469 17.5625 47.273438 42.667969 50.945313v14.019531c-9.863281 5.617187-18.6875 12.886719-26.097656 21.484375-9.992188 9.839844-14.597657 23.910156-12.355469 37.753906 0 .144532 0 .265625 9.992188 50.046875l-84.179688-19.796875c-8.601562-2.015625-17.652344-.144531-24.746094 5.121094-7.082031 5.253906-11.457031 13.382812-11.949218 22.1875l-8.53125 145.148438c-.753907 16.605468 12.070312 30.6875 28.671874 31.488281h1.195313c15.828125-.023438 28.910156-12.355469 29.867187-28.160157l6.484376-109.515624 98.371093 23.039062 61.738281 100.4375c5.421876 8.832031 15.042969 14.210938 25.40625 14.199219h153.597657c16.496093 0 29.867187-13.371094 29.867187-29.863281 0-16.496094-13.371094-29.867188-29.867187-29.867188zm-170.582031-358.742188c6.59375-1.90625 13.695312.140626 18.261718 5.265626 4.96875 5.972656 4.832032 14.976562-.382812 25.394531-6.613282 13.242187-2.558594 33.28125 4.429687 47.214843 1.765625 3.597657 3.859375 7.027344 6.253907 10.238282-12.800782-1.414063-30.003907-8.359375-45.714844-30.8125v-27.195313c0-.144531.0625-.265625 0-.410156-.058594-.144531 0-.410156 0-1.03125v-1.578125c.121094-6.394531 1.9375-22.65625 17.152344-27.085938zm-47.015626-76.460937c7.273438.230469 12.996094 6.292969 12.796876 13.570313v88.355468c-.050782 1.277344 0 2.472656 0 3.617188v110.683594c-4.746094 2.191406-10.160157 2.421874-15.078126.648437-5.101562-2.921875-8.871093-7.707031-10.519531-13.351563v-189.953124c-.199219-7.277344 5.523438-13.339844 12.800781-13.570313zm-55.46875 136.535156c-.660156-15.902343 10.09375-30.019531 25.601563-33.605469v67.210938c-15.507813-3.585938-26.261719-17.703125-25.601563-33.605469zm12.195313 97.867188c5.410156-6.265625 11.675781-11.746094 18.609375-16.273438 3.515625 6.160157 8.804688 11.113281 15.179688 14.21875 4.164062 1.902344 8.6875 2.875 13.261718 2.851563 3.042969-.039063 6.070313-.429688 9.019532-1.164063v41.96875c-23.414063 9.15625-50.558594 2.363281-60.851563-.851562l-3.488281-17.476563c-1.203125-8.640625 1.882812-17.328125 8.269531-23.273437zm-114.59375 243.464843h-.699219c-7.042968-.441406-12.429687-6.449218-12.101562-13.5l1.144531-19.386718 25.417969 5.070312-.964844 15.699219c-.402344 6.78125-6.003906 12.085937-12.796875 12.117187zm210.960937-6.082031-63.574218-103.425781c-1.191406-1.941406-3.109375-3.328125-5.324219-3.847656l-111.695313-26.199219c-2.453124-.554687-5.027343-.019531-7.054687 1.46875-2.019531 1.507813-3.265625 3.828125-3.414063 6.339844l-5.121093 86.734375-25.445313-5.078125 6.398438-108.507813c.195312-3.746094 2.046875-7.207031 5.054687-9.449218 3.050781-2.277344 6.953125-3.101563 10.664063-2.25l97.109375 22.867187c.414062.101563.839843.171875 1.265625.207031l26.015625 2.132813c4.707031.382812 8.832031-3.121094 9.21875-7.828125.382812-4.703125-3.121094-8.828125-7.828125-9.214844l-19.625-1.605469-4.046875-20.246093c9.980469 2.472656 20.210937 3.757812 30.492187 3.828124 9.003906.035157 17.96875-1.230468 26.613282-3.753906v4.710938c.050781.738281.195312 1.46875.4375 2.167968-1.066407 3.417969.132812 7.132813 2.992187 9.285157 9.464844 9.296875 14.4375 22.238281 13.636719 35.480469.121094 8.296874-1.582032 16.519531-4.980469 24.089843-.085937.28125-.160156.566407-.214844.851563-.199219.554687-.335937 1.125-.410156 1.707031-.078125.53125-.101563 1.070313-.066406 1.605469.03125.53125.113281 1.054687.238281 1.570312.140625.5625.34375 1.109375.597656 1.628906.085938.273438.183594.542969.296875.804688l43.351563 70.398438c1.5625 2.503906 4.316406 4.023437 7.269531 4.011718h107.519531v25.597656h-119.464844c-4.445312.003907-8.574218-2.300781-10.90625-6.082031zm164.503907 6.082031h-17.066407v-25.597656h17.066407c7.070312 0 12.800781 5.730469 12.800781 12.800782 0 7.066406-5.730469 12.796874-12.800781 12.796874zm0 0"/></svg>