<?xml version="1.0" encoding="iso-8859-1"?>
<!-- Generator: Adobe Illustrator 17.1.0, SVG Export Plug-In . SVG Version: 6.00 Build 0)  -->
<!DOCTYPE svg PUBLIC "-//W3C//DTD SVG 1.1//EN" "http://www.w3.org/Graphics/SVG/1.1/DTD/svg11.dtd">
<svg version="1.1" id="Capa_1" xmlns="http://www.w3.org/2000/svg" xmlns:xlink="http://www.w3.org/1999/xlink" x="0px" y="0px"
	 viewBox="0 0 364 364" style="enable-background:new 0 0 364 364;" xml:space="preserve">
<g>
	<path d="M304.419,219.714c-26.68,0-48.385,21.705-48.385,48.385s21.705,48.385,48.385,48.385c26.679,0,48.384-21.705,48.384-48.385
		S331.098,219.714,304.419,219.714z"/>
	<path d="M232.132,238.916l-88.281-9.97c-3.181-0.358-8.47-2.001-11.316-3.515l-27.47-14.616l-3.817-50.845
		c-0.224-2.978-0.909-7.611-1.56-10.548L71.849,23.699C70.752,18.74,66.04,15,60.887,15h-0.505l-0.987-5.988
		C58.559,3.874,53.942,0,48.656,0H26.352c-2.813,0-5.418,1.166-7.147,3.199c-1.703,2.002-2.427,4.706-1.984,7.429l0.76,4.608
		c-1.99,0.444-3.736,1.504-4.964,3.061c-1.646,2.085-2.21,4.864-1.549,7.628l27.72,115.706c0.604,2.532,1.115,6.517,1.115,8.702
		v105.585c0,4.652,2.91,9.607,6.918,11.781l21.591,11.731l-0.279,0.392l-2.916-1.584l2.906,1.597l-0.866,1.215
		c-4.739,6.645-3.349,16.121,3.1,21.125l74.099,57.719c3.173,2.461,7.583,4.107,12.101,4.107c0.001,0,0.001,0,0.002,0
		c3.716,0,7.176-1.147,10.003-2.875l67.833-41.56c5.47-3.341,8.751-10.103,8.474-16.524c0.014-0.235,0.035-0.527,0.035-0.765
		v-50.608C243.303,245.223,238.395,239.621,232.132,238.916z M169.517,314.463l-11.834,7.854c-1.208,0.803-2.942,1.263-4.758,1.263
		c-2.135,0-4.21-0.633-5.55-1.692l-9.387-7.425c0.645,0.053,1.268,0.081,1.858,0.081L169.517,314.463z M50.303,255.918V150.333
		c0-3.383-0.716-8.205-1.39-11.028L21.529,25h39.357c0.468,0,1.123,0.519,1.198,0.859l27.839,125.725
		c0.545,2.461,1.164,6.645,1.351,9.135l9.321,124.167l-10.842-8.576c-2.614-2.069-5.735-3.162-9.025-3.162
		c-0.738,0-1.465,0.077-2.185,0.189l-26.552-14.426C51.218,258.491,50.303,256.869,50.303,255.918z"/>
</g>
<g>
</g>
<g>
</g>
<g>
</g>
<g>
</g>
<g>
</g>
<g>
</g>
<g>
</g>
<g>
</g>
<g>
</g>
<g>
</g>
<g>
</g>
<g>
</g>
<g>
</g>
<g>
</g>
<g>
</g>
</svg>
