<svg height="512pt" viewBox="0 0 512 512" width="512pt" xmlns="http://www.w3.org/2000/svg"><path d="m30 120h226v30h-226zm0 0" fill="#ff5e47"/><path d="m256 30h226v30h-226zm0 0" fill="#df523e"/><path d="m0 407v105h61v-105l-31.398438-60zm0 0" fill="#ff7d4e"/><path d="m0 90h61v317h-61zm0 0" fill="#ff9b54"/><path d="m451 407v105h61v-105l-31.398438-60zm0 0" fill="#ff5e47"/><path d="m451 0h61v407h-61zm0 0" fill="#ff7d4e"/><path d="m286.5 407-50.5-58.28125 20 163.28125h30.5zm0 0" fill="#ff5e47"/><path d="m255.101562 347-29.601562 60v105h30.5v-163.28125zm0 0" fill="#ff7d4e"/><path d="m286.5 0h-30.5l-20 20v367l20 20h30.5zm0 0" fill="#ff7d4e"/><path d="m225.5 0h30.5v407h-30.5zm0 0" fill="#ff9b54"/></svg>