<?xml version="1.0" encoding="iso-8859-1"?>
<!-- Generator: Adobe Illustrator 19.0.0, SVG Export Plug-In . SVG Version: 6.00 Build 0)  -->
<svg xmlns="http://www.w3.org/2000/svg" xmlns:xlink="http://www.w3.org/1999/xlink" version="1.1" id="Layer_1" x="0px" y="0px" viewBox="0 0 512 512" style="enable-background:new 0 0 512 512;" xml:space="preserve" width="512" height="512">
<g id="XMLID_1374_">
	<path id="XMLID_1106_" style="fill:#FFBD86;" d="M256,323.997L256,323.997c-28.605,0-51.795-23.189-51.795-51.795v-18.536   c0-28.605,23.189-51.795,51.795-51.795h0c28.605,0,51.795,23.189,51.795,51.795v18.536   C307.795,300.808,284.605,323.997,256,323.997z"/>
	<path id="XMLID_1901_" style="fill:#5DDEF5;" d="M469.543,299.336L469.543,299.336c17.926,0,32.457-14.532,32.457-32.457V150.457   C502,132.532,487.469,118,469.543,118h0c-17.926,0-32.457,14.532-32.457,32.457v116.422   C437.086,284.804,451.617,299.336,469.543,299.336z"/>
	<path id="XMLID_1817_" style="fill:#FFBD86;" d="M337.67,414.683c0,0,46.473,10.117,58.276-34.565   c35.984-10.719,40.68-42.824,41.239-94.14c0.057-5.19,0.071-35.327,0.071-40.747c-15.175,0-37.937,0-37.937,0v54.798   c0,0-32.036,6.511-35.408,31.919c-23.605-10-47.316,5.175-47.316,5.175s-22.657,0-31.93-21.777h-57.327   c-9.274,21.777-31.93,21.777-31.93,21.777s-23.711-15.175-47.316-5.175c-3.372-25.408-35.408-31.919-35.408-31.919v-54.798   c0,0-22.762,0-37.937,0c0,5.42,0.014,35.558,0.071,40.747c0.559,51.316,5.254,83.422,41.239,94.14   c11.803,44.681,58.276,34.565,58.276,34.565H337.67z"/>
	<path id="XMLID_1820_" style="fill:#FF6371;" d="M337.67,502v-87.317l0,0c-13.132-8.404-21.076-22.921-21.076-38.512v-39.049   L284.664,323v41.334c0,15.83-12.833,28.664-28.664,28.664h0c-15.83,0-28.664-12.833-28.664-28.664v-40.337l-31.93,13.126v39.049   c0,15.591-7.944,30.107-21.076,38.512l0,0V502H337.67z"/>
	<path id="XMLID_1819_" style="fill:#FFBD86;" d="M284.664,331.948v32.386c0,15.83-12.833,28.664-28.664,28.664h0   c-15.83,0-28.664-12.833-28.664-28.664v-32.386"/>
	<path id="XMLID_1104_" style="fill:#FFBD86;" d="M93.495,201.872h5.058c11.857,0,20.737,10.868,18.374,22.487l-4.245,20.872H74.745   v-24.609C74.745,210.267,83.14,201.872,93.495,201.872z"/>
	<path id="XMLID_1102_" style="fill:#FFBD86;" d="M418.505,201.872h-5.058c-11.857,0-20.737,10.868-18.374,22.487l4.245,20.872   h37.937v-24.609C437.255,210.267,428.861,201.872,418.505,201.872z"/>
	<polygon id="XMLID_1107_" style="fill:#C0F0FB;" points="353.059,10 367.047,38.342 398.323,42.886 375.691,64.947 381.034,96.098    353.059,81.391 325.084,96.098 330.427,64.947 307.795,42.886 339.072,38.342  "/>
	<path id="XMLID_1377_" style="fill:#5DDEF5;" d="M42.457,299.336L42.457,299.336C24.531,299.336,10,284.804,10,266.879V150.457   C10,132.532,24.531,118,42.457,118h0c17.926,0,32.457,14.532,32.457,32.457v116.422C74.914,284.804,60.382,299.336,42.457,299.336z   "/>
	<g id="XMLID_500_">
		<path id="XMLID_725_" d="M469.543,108c-23.411,0-42.457,19.046-42.457,42.457v42.724c-1.442-0.452-2.935-0.789-4.464-1.009    l-30.147-11.96c-43.589-17.293-89.468-26.066-136.362-26.077c-0.028,0-0.055,0-0.083,0c-46.864,0-92.721,8.754-136.291,26.017    l-30.326,12.016c-1.542,0.22-3.045,0.558-4.499,1.014v-42.724c0-23.411-19.046-42.457-42.457-42.457S0,127.046,0,150.457v18.211    c0,5.523,4.478,10,10,10s10-4.477,10-10v-18.211C20,138.074,30.074,128,42.457,128s22.457,10.074,22.457,22.457    c0,0-0.165,108.982-0.15,118.983c-1.276,11.181-10.79,19.896-22.307,19.896C30.074,289.336,20,279.262,20,266.879v-18.211    c0-5.523-4.478-10-10-10s-10,4.477-10,10v18.211c0,23.411,19.046,42.457,42.457,42.457c8.366,0,16.168-2.442,22.749-6.637    c0.752,19.466,2.689,35.641,7.548,48.992c6.492,17.846,18.047,29.751,35.232,36.254c8.244,23.892,25.701,32.762,39.359,35.949    c5.738,1.339,11.232,1.76,15.873,1.76c0.378,0,0.745-0.005,1.111-0.01V502c0,5.522,4.478,10,10,10s10-4.478,10-10v-82.181    c13.291-10.518,21.076-26.455,21.076-43.648v-30.49c3.552-0.897,7.712-2.355,11.93-4.72v23.373    c0,21.319,17.345,38.663,38.664,38.663s38.664-17.344,38.664-38.663v-23.373c4.217,2.365,8.377,3.823,11.93,4.72v30.49    c0,17.193,7.785,33.131,21.076,43.648V502c0,5.522,4.478,10,10,10s10-4.478,10-10v-76.356c0.366,0.005,0.733,0.01,1.111,0.01    c4.641,0,10.136-0.421,15.874-1.76c13.657-3.188,31.115-12.058,39.359-35.949c17.186-6.503,28.739-18.408,35.232-36.254    c4.857-13.351,6.795-29.526,7.547-48.992c6.581,4.194,14.383,6.637,22.749,6.637c23.411,0,42.457-19.046,42.457-42.457v-18.211    c0-5.523-4.478-10-10-10s-10,4.477-10,10v18.211c0,12.383-10.074,22.457-22.457,22.457c-11.517,0-21.031-8.715-22.307-19.896    c0.015-10.001-0.15-118.983-0.15-118.983c0-12.383,10.074-22.457,22.457-22.457S492,138.074,492,150.457v18.211    c0,5.523,4.478,10,10,10s10-4.477,10-10v-18.211C512,127.046,492.954,108,469.543,108z M404.873,222.366    c-0.72-3.538,0.817-6.08,1.798-7.28c0.98-1.2,3.165-3.214,6.776-3.214h4.597l6.745,2.676c1.147,1.186,1.964,2.692,2.296,4.372    v16.31h-19.598L404.873,222.366z M98.553,211.872c3.611,0,5.796,2.014,6.776,3.214c0.98,1.2,2.518,3.742,1.798,7.28l-2.616,12.865    H84.914v-16.31c0.332-1.677,1.147-3.18,2.291-4.366l6.771-2.683H98.553z M170.453,405.223c-7.529,1.142-36.527,3.396-44.73-27.658    c-0.89-3.371-3.472-6.035-6.813-7.03c-28.475-8.481-33.53-32.974-34.095-84.666c-0.022-2.075-0.039-8.412-0.049-15.581    c0.09-1.126,0.149-2.26,0.149-3.409V255.23h17.768v44.798c0,4.755,3.349,8.853,8.009,9.8c0.25,0.051,25.118,5.59,27.486,23.435    c0.41,3.094,2.242,5.819,4.952,7.367c2.711,1.55,5.989,1.742,8.861,0.525c12.957-5.487,26.526-1.064,33.416,2.03v32.986    C185.406,387.798,179.845,398.521,170.453,405.223z M256,313.997c-23.046,0-41.795-18.749-41.795-41.795v-18.536    c0-23.045,18.749-41.794,41.795-41.794s41.795,18.749,41.795,41.794v18.536C297.795,295.248,279.046,313.997,256,313.997z     M274.664,364.334c0,10.291-8.373,18.663-18.664,18.663s-18.664-8.372-18.664-18.663v-32.387c0-0.288-0.019-0.571-0.043-0.852    c5.904,1.88,12.188,2.902,18.707,2.902s12.803-1.022,18.707-2.902c-0.024,0.281-0.043,0.565-0.043,0.852V364.334z     M297.696,317.765c12.344-11.306,20.099-27.544,20.099-45.563v-18.536c0-34.074-27.721-61.794-61.795-61.794    s-61.795,27.721-61.795,61.794v18.536c0,18.019,7.755,34.257,20.1,45.563c-5.479,6.666-12.953,8.595-16.652,9.14    c-6.834-3.604-23.834-11.003-42.755-7.408c-6.937-15.675-22.594-23.476-32.216-26.926v-46.332l4.045-19.887    c1.727-8.492-0.428-17.21-5.91-23.921c-0.249-0.305-0.509-0.597-0.769-0.89l7.058-2.797    c83.193-32.962,174.816-32.942,257.994,0.057l6.866,2.724c-0.264,0.298-0.529,0.595-0.782,0.905    c-5.482,6.71-7.637,15.429-5.91,23.92l4.045,19.892v46.328c-9.621,3.45-25.278,11.254-32.216,26.925    c-18.906-3.587-35.905,3.799-42.745,7.405C310.611,326.349,303.159,324.411,297.696,317.765z M393.092,370.534    c-3.342,0.995-5.924,3.659-6.813,7.03c-3.875,14.667-12.247,23.405-25.597,26.716c-8.151,2.022-15.861,1.357-19.195,0.901    c-9.356-6.705-14.893-17.407-14.893-29.01v-32.979c6.9-3.089,20.491-7.511,33.416-2.036c2.872,1.217,6.15,1.024,8.861-0.525    c2.71-1.548,4.542-4.273,4.952-7.367c2.38-17.934,27.271-23.389,27.486-23.435c4.66-0.947,8.009-5.045,8.009-9.8V255.23h17.768    v11.648c0,1.148,0.059,2.283,0.149,3.409c-0.011,7.168-0.027,13.506-0.049,15.581    C426.621,337.561,421.565,362.053,393.092,370.534z"/>
		<path id="XMLID_732_" d="M274.375,273.747h-0.033c-3.058-3.022-7.251-4.75-11.555-4.75c-2.38,0-4.683,0.503-6.787,1.458    c-2.104-0.955-4.407-1.458-6.787-1.458c-4.302,0-8.493,1.727-11.555,4.75h-0.033c-5.522,0-10,4.478-10,10s4.478,10,10,10h1.537    c3.595,0,7.113-1.206,9.959-3.367c3.853,3.656,9.903,3.655,13.758,0.001c2.844,2.16,6.362,3.366,9.959,3.366h1.537    c5.522,0,10-4.478,10-10S279.897,273.747,274.375,273.747z"/>
		<path id="XMLID_733_" d="M50,409.562c-5.522,0-10,4.478-10,10v14.414c0,5.522,4.478,10,10,10s10-4.478,10-10v-14.414    C60,414.039,55.522,409.562,50,409.562z"/>
		<path id="XMLID_734_" d="M50,475.146c-5.522,0-10,4.478-10,10v14.415c0,5.522,4.478,10,10,10s10-4.478,10-10v-14.415    C60,479.624,55.522,475.146,50,475.146z"/>
		<path id="XMLID_735_" d="M90,449.562H75.586c-5.522,0-10,4.478-10,10s4.478,10,10,10H90c5.522,0,10-4.478,10-10    S95.522,449.562,90,449.562z"/>
		<path id="XMLID_736_" d="M24.414,449.562H10c-5.522,0-10,4.478-10,10s4.478,10,10,10h14.414c5.522,0,10-4.478,10-10    S29.937,449.562,24.414,449.562z"/>
		<path id="XMLID_739_" d="M319.682,68.438l-4.454,25.969c-0.644,3.751,0.899,7.543,3.979,9.781c1.742,1.266,3.806,1.91,5.879,1.91    c1.592,0,3.189-0.379,4.652-1.148l23.322-12.261l23.321,12.261c3.367,1.771,7.451,1.476,10.531-0.761    c3.079-2.237,4.622-6.029,3.979-9.781l-4.454-25.969l18.867-18.391c2.726-2.657,3.706-6.631,2.53-10.251    c-1.177-3.62-4.306-6.258-8.072-6.806l-26.074-3.789l-11.66-23.627C360.343,2.161,356.866,0,353.06,0s-7.283,2.161-8.967,5.574    l-11.662,23.627l-26.074,3.789c-3.767,0.547-6.896,3.186-8.072,6.806c-1.176,3.62-0.195,7.594,2.53,10.251L319.682,68.438z     M340.51,48.238c3.257-0.473,6.072-2.519,7.528-5.47l5.021-10.172l5.02,10.172c1.457,2.951,4.272,4.997,7.529,5.47l11.226,1.631    l-8.123,7.917c-2.356,2.297-3.432,5.607-2.876,8.851l1.918,11.18l-10.04-5.278c-2.914-1.532-6.395-1.532-9.307,0l-10.041,5.279    l1.918-11.18c0.556-3.244-0.52-6.554-2.876-8.851l-8.123-7.917L340.51,48.238z"/>
		<path id="XMLID_740_" d="M502,198.67c-2.63,0-5.21,1.07-7.07,2.93c-1.86,1.86-2.93,4.44-2.93,7.07s1.069,5.21,2.93,7.07    s4.44,2.93,7.07,2.93s5.21-1.07,7.069-2.93c1.86-1.86,2.931-4.44,2.931-7.07s-1.07-5.21-2.931-7.07    C507.21,199.74,504.63,198.67,502,198.67z"/>
		<path id="XMLID_741_" d="M10,218.67c2.63,0,5.21-1.07,7.069-2.93c1.86-1.86,2.931-4.44,2.931-7.07c0-2.64-1.07-5.21-2.931-7.07    c-1.859-1.86-4.439-2.93-7.069-2.93s-5.21,1.07-7.07,2.93c-1.86,1.86-2.93,4.44-2.93,7.07s1.069,5.21,2.93,7.07    S7.37,218.67,10,218.67z"/>
	</g>
</g>















</svg>
