<svg id="Filled-Outline" enable-background="new 0 0 512 512" height="512" viewBox="0 0 512 512" width="512" xmlns="http://www.w3.org/2000/svg"><g><g><g><path d="m184 160h-20.0000153c-11.0456848 0-19.9999847-8.9542999-19.9999847-19.9999847v-.0000305c0-11.0456849 8.9542999-19.9999848 19.9999847-19.9999848h20.0000153z" fill="#eaaa94"/><path d="m328 120h20.0000305c11.0456848 0 19.9999695 8.9542999 19.9999695 19.9999847v.0000305c0 11.0456849-8.9542847 19.9999848-19.9999695 19.9999848h-20.0000305z" fill="#eaaa94"/><circle cx="192" cy="64" fill="#5b0b3c" r="40"/><circle cx="320" cy="64" fill="#5b0b3c" r="40"/><path d="m160 120c0-9.5400391 1.3901367-18.75 3.9799805-27.4400024 4.6101074-15.4800415 13.0100098-29.3200073 24.1401367-40.4400024 17.369873-17.380005 41.369873-28.1199952 67.8798828-28.1199952s50.5100098 10.7399902 67.8798828 28.1199951c11.130127 11.1199951 19.5300293 24.9599609 24.1401367 40.4400024 2.5898438 8.6900025 3.9799805 17.8999634 3.9799805 27.4400025z" fill="#f48da1"/><path d="m338.0500488 112.1099854c-.0100098-.0100098-.0100098-.0100098-.0100098-.0100098-12.7800292-32.8299561-44.6899413-56.0999756-82.040039-56.0999756-37.8901367 0-70.1899414 23.9499512-82.5800781 57.5400391-3.5100098 9.4899902-5.4199219 19.75-5.4199219 30.4599609 0 48.5999756 39.3999023 88 88 88s88-39.4000244 88-88c0-11.25-2.1098633-22-5.9499512-31.8900146z" fill="#fad6c6"/><path d="m208 136h-16c0-17.6450195 14.3554688-32 32-32v16c-8.8222656 0-16 7.1777344-16 16z" fill="#5b0b3c"/><path d="m320 136h-16c0-8.8222656-7.1777344-16-16-16v-16c17.6445313 0 32 14.3549805 32 32z" fill="#5b0b3c"/><path d="m255.8359222 131.344101c8.6904144-.1407013 17.429184 2.7035522 24.1418304 8.5658569l-12.3519897 11.5159302c-6.4140015-5.6000214-16.6940308-5.4335785-22.9233856.3711548l-12.7183228-11.1100159c6.5193635-6.0765534 15.1614533-9.2022248 23.8518677-9.342926z" fill="#e22526"/><path d="m216 184c0 12.1099854-8.9799805 22.1300049-20.6499023 23.7600098-10.630127-10.1100464-18.7299805-22.8500366-23.25-37.1700439 4.3098144-6.3899537 11.619873-10.5899659 19.8999023-10.5899659 13.25 0 24 10.75 24 24z" fill="#f48da1"/><path d="m339.8999023 170.5899658c-4.5200195 14.3200073-12.619873 27.0599976-23.25 37.1700439-11.6699218-1.6300048-20.6499023-11.6500243-20.6499023-23.7600097 0-13.25 10.75-24 24-24 8.2800293 0 15.5900879 4.2000122 19.8999023 10.5899658z" fill="#f48da1"/><path d="m344 118.3983307c-6.2651978-8.1862946-14.1124268-14.7264481-22.9006348-19.2867279-9.3762817-4.8828812-19.8323975-7.518959-30.5985718-7.518959l-17.1060486-17.7963181-17.1060486 17.7963181h-25.6590881c-23.9055633-.0000001-46.5605773 10.3996963-62.6296081 28.4073562 13.2466431-37.3611145 47.7792816-64 88.2886963-64 39.9320373 0 74.047821 25.8824768 87.7113037 62.3983307z" fill="#5b0b3c"/></g><g><path d="m312 296-16 32v16l32 56 16 64 10.5337524 5.2668762c3.3500672 1.6750488 5.4662476 5.0990601 5.4662476 8.844574v.0000305c0 5.4612732-4.4272461 9.8885193-9.8885193 9.8885193h-29.1114807l-24-64-41-40-40 40-24 64h-30.1114655c-5.4612884 0-9.8885345-4.4272461-9.8885345-9.8885193v-.0000305c0-3.7455139 2.1161652-7.1695251 5.4662476-8.844574l10.5337524-5.2668762 16-64 32-56v-16l-16-32v-17h112z" fill="#fad6c6"/></g><path d="m157.4663086 469.2668457c-3.3500977 1.6750488-5.4663086 5.0991211-5.4663086 8.8446045 0 5.4613037 4.4272461 9.8885498 9.8885498 9.8885498h30.1114502l6.1713867-16.4571533-30.1713867-7.5428467z" fill="#feea01"/><path d="m354.5336914 469.2668457-10.5336914-5.2668457-29.2570801 7.314209 6.2570801 16.685791h29.1114502c5.4613037 0 9.8885498-4.4272461 9.8885498-9.8885498 0-3.7454834-2.1162109-7.1695557-5.4663086-8.8446045z" fill="#feea01"/><path d="m328 400-32-56s-16 8-40 8-40-8-40-8l-32 56-8 32 31.157959 15.5788574 8.842041-23.5788574 40-40 41 40 8.6842041 23.157959 30.3157959-15.157959z" fill="#35495e"/><path d="m40 360h-8.0000153c-8.8365478 0-15.9999847-7.1634216-15.9999847-15.9999695v-.000061c0-8.8365479 7.1634369-15.9999695 15.9999847-15.9999695h8.0000153z" fill="#fcc200"/><path d="m472 360h8.0000305c8.8365479 0 15.9999695-7.1634216 15.9999695-15.9999695v-.000061c0-8.8365479-7.1634216-15.9999695-15.9999695-15.9999695h-8.0000305z" fill="#fcc200"/><path d="m96.5 264.5-32.5-.5c-22.0913887 0-40 35.8172302-40 80s17.9086113 80 40 80l32.5.5z" fill="#f0615f"/><path d="m415.5 264.5 32.5-.5c22.0914001 0 40 35.8172302 40 80s-17.9085999 80-40 80l-32.5.5z" fill="#f0615f"/><ellipse cx="96" cy="344" fill="#e22526" rx="40" ry="80"/><ellipse cx="416" cy="344" fill="#e22526" rx="40" ry="80"/><path d="m408.0000305 360h-304.000061c-8.8365326 0-15.9999695-7.1634216-15.9999695-15.9999695v-.000061c0-8.8365479 7.1634369-15.9999695 15.9999847-15.9999695h304.000061c8.8365327 0 15.9999543 7.1634216 15.9999543 15.9999695v.000061c0 8.8365479-7.1634216 15.9999695-15.9999695 15.9999695z" fill="#fcc200"/><path d="m320 288v40h16v32h24l8-24-16-24-12.1413574-60.7067871c-2.2436218-11.2181854-12.0935974-19.2932129-23.5339356-19.2932129h-60.324707-60.324707c-11.4403381 0-21.2902985 8.0750275-23.5339355 19.2932129l-12.1413575 60.7067871-16 24 8 24h24v-32h16v-40z" fill="#fad6c6"/><path d="m312 296v-17h-112v17l12 24h88z" fill="#067b96"/><path d="m216 232 .0000458.0000763c16.4808807 32.9617767 63.5190277 32.9617767 79.9999237 0l.0000305-.0000763h16v16l4.0000305 4.0000153c11.0456848 11.0457001 11.0456848 28.9542694 0 39.9999542l-.000061.000061c-11.0456848 11.0456848-28.9542542 11.0456848-39.999939 0l-.000061-.000061c-11.0456848-11.0456848-28.9542694-11.0456848-39.9999542 0l-.0000305.000061c-11.0456848 11.0456848-28.9542847 11.0456848-39.9999695 0l-.0000305-.000061c-11.0456848-11.0456848-11.0456848-28.9542542 0-39.9999542l4.0000152-4.0000153v-16z" fill="#00a8e7"/></g><g><path d="m192 136h16c0-8.8222656 7.1777344-16 16-16v-16c-17.6450195 0-32 14.3549805-32 32z"/><path d="m304 136h16c0-17.6450195-14.3549805-32-32-32v16c8.8222656 0 16 7.1777344 16 16z"/><path d="m234.3432617 137.9707031 11.3134766 11.3134766c5.703125-5.703125 14.9833984-5.703125 20.6865234 0l11.3134766-11.3134766c-11.9414063-11.9414062-31.3720703-11.9414062-43.3134766 0z"/><path d="m482.8164063 284.1655273c-8.8569336-17.7133789-21.2216797-27.4682617-34.8164063-27.4682617-.0375977 0-.074707 0-.1123047.0004883l-27.1484375.4177246c-1.5825195-.2723389-3.1721191-.4182129-4.7392578-.4182129-21.7637939 0-39.9580078 25.6768799-45.5549316 63.3027344h-3.4970703l-7.4138184-11.1206055-11.8310547-59.1552734c-2.9804687-14.9052734-16.1772461-25.7241211-31.378418-25.7241211h-7.3214111c19.4625244-12.9377441 33.960083-32.7767334 39.9592285-56h2.0374756c15.4394531 0 28-12.5605469 28-28 0-12.3706055-8.0668945-22.8859863-19.2141113-26.5802002-.4020996-6.4051514-1.3840332-12.6546631-2.8984375-18.6964111 5.6585693-6.7680664 9.3514404-14.9836426 10.630127-23.9353027 1.8134766-12.6918945-1.4248047-25.3310547-9.1176758-35.5878906-7.6928711-10.2573242-18.9194336-16.9047852-31.6118164-18.7177734-11.3820801-1.6262207-22.71521.8220215-32.3320313 6.8902588-11.9016113-4.7535402-24.8781738-7.3726808-38.4560547-7.3726808-13.5777588 0-26.5543213 2.6191406-38.4560547 7.3725586-9.6171875-6.0686035-20.9503174-8.517334-32.3320313-6.8901367-12.6923828 1.8129883-23.9189453 8.4604492-31.6118164 18.7177734-7.6928711 10.2568359-10.9311523 22.8959961-9.1176758 35.5878906 1.2786865 8.9516602 4.9715576 17.1672363 10.630127 23.9353027-1.5144043 6.041748-2.4963379 12.2912598-2.8984375 18.6964111-11.1472168 3.694214-19.2141113 14.2095948-19.2141113 26.5802003 0 15.4394531 12.5605469 28 28 28h2.0374756c5.9991455 23.2232666 20.4967041 43.0622559 39.9592285 56h-7.3214111c-15.2011719 0-28.3979492 10.8188477-31.378418 25.7241211l-11.8310547 59.1552734-7.4138183 11.1206055h-3.4970703c-5.5969239-37.6258545-23.7911378-63.3027344-45.5549317-63.3027344-1.5631104 0-3.1494141.1452637-4.7386475.4182129l-27.1490479-.4177246c-.0375977-.0004883-.074707-.0004883-.1123047-.0004883-13.5947266 0-25.9594727 9.7548828-34.8164063 27.4682617-8.0522459 16.1044922-12.486328 37.354004-12.486328 59.8344727s4.434082 43.7299805 12.4863281 59.8344727c8.8432617 17.6865234 21.184082 27.4384766 34.7548828 27.4682617l32.4492188.4995117.0079346-.5150146c21.5875244-.3104248 39.5964355-25.890625 45.1593018-63.2872314h10.4450683 24 17.0737305l-16.0195313 28.0307617c-.3632813.6357422-.6376953 1.3183594-.8154297 2.0288086l-15.1079102 60.4321289-7.2207031 3.6142578c-2.9692383 1.4750977-5.4682617 3.7519531-7.2387695 6.6035156-1.7475586 2.8325195-2.6713867 6.0834961-2.6713867 9.4003906 0 9.8647461 8.0253906 17.8901367 17.8901367 17.8901367h30.1098633c3.3344727 0 6.3193359-2.0683594 7.4902344-5.1904297l23.3920898-62.378418 33.1870117-33.1870117 34.065918 33.2353516 23.3745117 62.3300781c1.1708985 3.1220703 4.1557617 5.1904297 7.4902344 5.1904297h29.1098633c4.7744141 0 9.2661133-1.8618164 12.6469727-5.2431641 3.3813476-3.3808593 5.243164-7.8725586 5.243164-12.6469726 0-6.824707-3.7939453-12.9550781-9.8896484-15.9936523l-7.2412109-3.6245117-15.1079102-60.4321289c-.1777344-.7104492-.4521484-1.3930664-.8154297-2.0288086l-16.0195313-28.0307618h17.0737305 24 10.4450684c5.5628662 37.3966064 23.5717773 62.9768066 45.1593018 63.2872314l.0079346.5150146 32.4492188-.4995117c13.5708008-.0297852 25.9116211-9.7817383 34.7548828-27.4682617 8.0522459-16.1044921 12.486328-37.3540038 12.486328-59.8344726s-4.4340821-43.7299805-12.4863281-59.8344727zm-346.4057618 54.3642579 4.4899903 13.4702148h-36.9006348c-4.4111328 0-8-3.5888672-8-8s3.5888672-8 8-8h32.0075684c-.0001221.8500977.1278076 1.7041016.4030761 2.5297852zm-72.4106445 78.1674804c-15.465332 0-32.6972656-29.855957-32.6972656-72.6972656 0-42.7944336 17.1948242-72.6313477 32.6469727-72.6967773l5.3288574.0820313c-12.600586 15.567871-20.5817872 42.0848388-20.5817872 72.614746 0 22.4790039 4.4350586 43.7285156 12.487793 59.8334961 2.4750977 4.9501953 5.2244873 9.2773438 8.1976318 12.9453125l-5.2698975-.0810547c-.0375976-.0004883-.0747069-.0004883-.1123046-.0004883zm32 0c-15.465332 0-32.6967773-29.855957-32.6967773-72.6972656 0-40.3137207 15.1383057-68.6016846 29.3778076-72.2547607l3.706665.0570068.0073242-.4782715c13.1398926.4072266 25.7141113 21.036377 30.3630371 48.6760254h-22.7580566c-13.2333984 0-24 10.7666016-24 24s10.7666016 24 24 24h22.7580566c-4.6955566 27.9169922-17.47583 48.6972656-30.7580566 48.6972656zm160-176.6972656h23.8884277c-6.4707031 5.588501-14.7773438 8.7211914-23.8884277 8.7211914s-17.4177246-3.1326904-23.8884277-8.7211914zm58.1391602-41.1328125c-5.9702149-2.3637695-10.1391602-8.2124023-10.1391602-14.8671875 0-8.8222656 7.1777344-16 16-16 4.0649414 0 7.9143066 1.5430908 10.8371582 4.239502-3.7784424 9.9794921-9.4998779 19.0045166-16.697998 26.6276855zm37.527832-46.901001c.2167969-2.6276855.3330078-5.2834472.3330078-7.9661865 0-5.4509277-.463623-10.7946777-1.3406982-16h.3406982c6.6166992 0 12 5.3833008 12 12 0 6.3916016-5.0270996 11.6169434-11.3330078 11.9661865zm-27.1416016-119.6448974c8.4619141 1.2089844 15.9462891 5.640625 21.074707 12.4785156 5.128418 6.8383789 7.2871094 15.2641602 6.0786133 23.7255859-.3378906 2.3652344-.9362793 4.6500244-1.7600098 6.8323975-8.2858887-17.3618164-21.2473145-32.0782471-37.244873-42.5161133 3.8334961-.9002685 7.8381348-1.0938721 11.8515625-.5203857zm17.5021973 69.1086425c-15.7177734-31.6345214-48.3726807-53.4299316-86.0275879-53.4299316-37.6281738 0-70.2633057 21.7644043-85.9941406 53.3624268 8.5749511-39.5994873 43.8652344-69.3624268 85.9941406-69.3624268 42.1550293 0 77.4812012 29.7932129 86.0275879 69.4299316zm-34.7069092-18.7382812c-5.1651611-1.4494629-10.5023193-2.3500977-15.9256592-2.6101074l-12.815918-12.815918c10.6726075 3.1459961 20.4243165 8.4521484 28.7415772 15.4260254zm-39.0776367-17.7546387c-.6827393.3635254-1.324585.8310547-1.8997803 1.40625l-13.6572265 13.6567383h-20.6860352c-10.5007324 0-20.8208008 1.9146729-30.489502 5.5007324 14.2958985-13.3249511 33.4511719-21.5007324 54.489502-21.5007324 4.1621094 0 8.2504883.3212891 12.243042.9370117zm-107.9217529 3.5883789c-1.2084961-8.4614258.9501953-16.887207 6.0786133-23.7255859 5.128418-6.8378906 12.612793-11.2695313 21.074707-12.4785156 4.0136719-.572998 8.0179443-.3793945 11.8508301.520752-15.9973145 10.4378662-28.958252 25.1541748-37.2441406 42.5157471-.8237305-2.1823732-1.4221192-4.4671632-1.7600098-6.8323976zm-11.3212891 71.4746094c0-6.6166992 5.3833008-12 12-12h.3406982c-.8770752 5.2053223-1.3406982 10.5490723-1.3406982 16 0 2.6827393.1162109 5.338501.3330078 7.9661865-6.3059082-.3492431-11.3330078-5.5745849-11.3330078-11.9661865zm32.1628418 32.239502c2.9228516-2.6964112 6.7722168-4.239502 10.8371582-4.239502 8.8222656 0 16 7.1777344 16 16 0 6.6547852-4.1689453 12.503418-10.1391602 14.8671875-7.1981201-7.6231689-12.9195556-16.6481934-16.697998-26.6276855zm29.5615234 37.6679687c8.0748291-5.8703613 13.2756348-15.3934326 13.2756348-25.9074707 0-17.6450195-14.3549805-32-32-32-5.3648682 0-10.5422363 1.3415527-15.123291 3.7998047-.5720215-3.8522949-.876709-7.7907715-.876709-11.7998047 0-9.1871338 1.576416-18.0085449 4.4396973-26.2321777 13.4494629-13.7607422 32.1273193-21.7678223 51.5603027-21.7678223h24c2.121582 0 4.1567383-.8427734 5.6567383-2.3432617l10.3432617-10.3427735 10.3432617 10.3427734c1.5 1.5004884 3.5351563 2.3432618 5.6567383 2.3432618 16.5549316 0 32.4030762 7.4726563 42.9763184 20.1130371 3.2420654 8.6882324 5.0236816 18.0822754 5.0236816 27.8869629 0 4.0090332-.3046875 7.9475098-.876709 11.7998047-4.5810547-2.458252-9.7584228-3.7998047-15.123291-3.7998047-17.6450195 0-32 14.3549805-32 32 0 10.5140381 5.2008057 20.0371094 13.2756348 25.9074707-12.8842774 8.8786621-28.4796143 14.0925293-45.2756348 14.0925293s-32.3913574-5.2138672-45.2756348-14.0925293zm-26.7243652 126.0925293h8 128 8v16h-144zm124.9440918-16 3.0559082-6.1118164v6.1118164zm-17.8881836 0h-70.1118164l-5.8774414-11.7548828c9.6000977.244873 19.2794189-3.27771 26.5900879-10.5883789 7.9091797-7.9082031 20.7773438-7.9082031 28.6865234 0 7.0737305 7.0737305 16.3652344 10.6103516 25.6567383 10.6103516.3112793 0 .6223145-.0142822.9334717-.0222168zm-91.0559082-6.1118164 3.0559082 6.1118164h-3.0559082zm-13.543457 166.1118164h-24.5664063c-1.0419922 0-1.8901367-.8481445-1.8901367-1.8901367 0-.3525391.097168-.6889648.2763672-.9794922.1318359-.2119141.3691406-.5048828.7744141-.706543l10.5297852-5.2700195c2.0874023-1.0444336 3.6142578-2.9487305 4.1806641-5.2133789l5.5812988-22.3250732 15.7963867 7.8980713zm164.5043945-3.5703125c.6313477.3149414 1.0390625.9741211 1.0390625 1.6801758 0 .6420898-.3027344 1.0795898-.5566406 1.3334961s-.6914063.5566406-1.3334961.5566406h-23.5664063l-10.8400879-28.9075928 14.9541016-7.4770508 5.5812988 22.3250732c.5664063 2.2646484 2.0932617 4.1689453 4.1806641 5.2133789zm-30.4545898-73.418457 6.1759033 24.7036133-16.6275635 8.3137207-5.5634766-14.8361816c-.4125977-1.1010742-1.0629883-2.0976563-1.9047852-2.918457l-41-40c-3.1347656-3.0585938-8.1455078-3.0268555-11.2431641.0693359l-40 40c-.8076172.8076172-1.4331055 1.7788086-1.8339844 2.8486328l-5.7216797 15.2578125-17.4698486-8.7348633 6.1759033-24.7036133 20.0085451-35.0112305h88.9956055zm33.727539-51.0112305h-10.2338867v-24c0-4.418457-3.581543-8-8-8h-8v-30.8996582c7.3249512-13.7248535 5.2138672-31.2004395-6.3432617-42.7570801l-4-4-11.3134766 11.3134766 4 4c3.8310547 3.831543 5.940918 8.925293 5.940918 14.3432617s-2.1098633 10.5117188-5.940918 14.3432617c-3.831543 3.8310547-8.925293 5.940918-14.3432617 5.940918s-10.5117188-2.1098633-14.3432617-5.940918c-14.1474609-14.1474609-37.1660156-14.1474609-51.3134766 0-3.831543 3.8310547-8.925293 5.940918-14.3432617 5.940918s-10.5117188-2.1098633-14.3432617-5.940918c-3.8310547-3.831543-5.940918-8.925293-5.940918-14.3432617s2.1098633-10.5117188 5.940918-14.3432617l4-4-11.3134766-11.3134766-4 4c-11.5571289 11.5566406-13.6682129 29.0322266-6.3432617 42.7570801v30.8996582h-8c-4.418457 0-8 3.581543-8 8v24h-10.2338867l-4.9394531-14.8178711 13.8295898-20.7446289c.5795898-.8691406.9833984-1.84375 1.1884766-2.8686523l12.1416016-60.7070313c1.4902343-7.4526367 8.0883788-12.8618164 15.6889648-12.8618164h15.654541c9.5894775 15.3647461 26.2775879 24.7211914 44.670166 24.7211914s35.0806885-9.3564453 44.670166-24.7211914h15.654541c7.6005859 0 14.1987305 5.4091797 15.6889648 12.8618164l12.1416016 60.7070313c.2050781 1.0249023.6088867 1.9995117 1.1884766 2.8686523l13.8295898 20.7446289zm21.7585449-16h32.0075684c4.4111328 0 8 3.5888672 8 8s-3.5888672 8-8 8h-36.9006348l4.4899902-13.4702148c.2752686-.8256836.4031983-1.6796875.4030762-2.5297852zm9.2495118 32h22.7580566c13.2333984 0 24-10.7666016 24-24s-10.7666016-24-24-24h-22.7580566c4.6489258-27.6396484 17.2231445-48.2687988 30.3630371-48.6760254l.0073242.4782715 3.7021484-.0568848c14.2529297 3.6699219 29.3823242 31.953003 29.3823242 72.2546387 0 42.8413086-17.2314453 72.6972656-32.6967773 72.6972656-13.2822266 0-26.0625-20.7802734-30.7580566-48.6972656zm62.7580566 48.6972656c-.0375977 0-.074707 0-.1123047.0004883l-5.2698975.0810547c2.9731445-3.6679688 5.7225342-7.9951172 8.1976318-12.9453125 8.0527344-16.1049805 12.487793-37.3544922 12.487793-59.8334961 0-30.5292969-7.980835-57.0456543-20.5864258-72.6147461l5.3334961-.0820313c15.4521485.0654297 32.6469727 29.9023438 32.6469727 72.6967774 0 42.8413086-17.2319336 72.6972656-32.6972656 72.6972656z"/></g></g></svg>