<svg id="Flat" enable-background="new 0 0 512 512" height="512" viewBox="0 0 512 512" width="512" xmlns="http://www.w3.org/2000/svg"><g><g><path d="m184 160h-20.0000153c-11.0456848 0-19.9999847-8.9542999-19.9999847-19.9999847v-.0000305c0-11.0456849 8.9542999-19.9999848 19.9999847-19.9999848h20.0000153z" fill="#eaaa94"/><path d="m328 120h20.0000305c11.0456848 0 19.9999695 8.9542999 19.9999695 19.9999847v.0000305c0 11.0456849-8.9542847 19.9999848-19.9999695 19.9999848h-20.0000305z" fill="#eaaa94"/><circle cx="192" cy="64" fill="#5b0b3c" r="40"/><circle cx="320" cy="64" fill="#5b0b3c" r="40"/><path d="m160 120c0-9.5400391 1.3901367-18.75 3.9799805-27.4400024 4.6101074-15.4800415 13.0100098-29.3200073 24.1401367-40.4400024 17.369873-17.380005 41.369873-28.1199952 67.8798828-28.1199952s50.5100098 10.7399902 67.8798828 28.1199951c11.130127 11.1199951 19.5300293 24.9599609 24.1401367 40.4400024 2.5898438 8.6900025 3.9799805 17.8999634 3.9799805 27.4400025z" fill="#f48da1"/><path d="m338.0500488 112.1099854c-.0100098-.0100098-.0100098-.0100098-.0100098-.0100098-12.7800292-32.8299561-44.6899413-56.0999756-82.040039-56.0999756-37.8901367 0-70.1899414 23.9499512-82.5800781 57.5400391-3.5100098 9.4899902-5.4199219 19.75-5.4199219 30.4599609 0 48.5999756 39.3999023 88 88 88s88-39.4000244 88-88c0-11.25-2.1098633-22-5.9499512-31.8900146z" fill="#fad6c6"/><path d="m208 136h-16c0-17.6450195 14.3554688-32 32-32v16c-8.8222656 0-16 7.1777344-16 16z" fill="#5b0b3c"/><path d="m320 136h-16c0-8.8222656-7.1777344-16-16-16v-16c17.6445313 0 32 14.3549805 32 32z" fill="#5b0b3c"/><path d="m255.8359222 131.344101c8.6904144-.1407013 17.429184 2.7035522 24.1418304 8.5658569l-12.3519897 11.5159302c-6.4140015-5.6000214-16.6940308-5.4335785-22.9233856.3711548l-12.7183228-11.1100159c6.5193635-6.0765534 15.1614533-9.2022248 23.8518677-9.342926z" fill="#e22526"/><path d="m216 184c0 12.1099854-8.9799805 22.1300049-20.6499023 23.7600098-10.630127-10.1100464-18.7299805-22.8500366-23.25-37.1700439 4.3098144-6.3899537 11.619873-10.5899659 19.8999023-10.5899659 13.25 0 24 10.75 24 24z" fill="#f48da1"/><path d="m339.8999023 170.5899658c-4.5200195 14.3200073-12.619873 27.0599976-23.25 37.1700439-11.6699218-1.6300048-20.6499023-11.6500243-20.6499023-23.7600097 0-13.25 10.75-24 24-24 8.2800293 0 15.5900879 4.2000122 19.8999023 10.5899658z" fill="#f48da1"/><path d="m344 118.3983307c-6.2651978-8.1862946-14.1124268-14.7264481-22.9006348-19.2867279-9.3762817-4.8828812-19.8323975-7.518959-30.5985718-7.518959l-17.1060486-17.7963181-17.1060486 17.7963181h-25.6590881c-23.9055633-.0000001-46.5605773 10.3996963-62.6296081 28.4073562 13.2466431-37.3611145 47.7792816-64 88.2886963-64 39.9320373 0 74.047821 25.8824768 87.7113037 62.3983307z" fill="#5b0b3c"/></g><g><path d="m312 296-16 32v16l32 56 16 64 10.5337524 5.2668762c3.3500672 1.6750488 5.4662476 5.0990601 5.4662476 8.844574v.0000305c0 5.4612732-4.4272461 9.8885193-9.8885193 9.8885193h-29.1114807l-24-64-41-40-40 40-24 64h-30.1114655c-5.4612884 0-9.8885345-4.4272461-9.8885345-9.8885193v-.0000305c0-3.7455139 2.1161652-7.1695251 5.4662476-8.844574l10.5337524-5.2668762 16-64 32-56v-16l-16-32v-17h112z" fill="#fad6c6"/></g><path d="m157.4663086 469.2668457c-3.3500977 1.6750488-5.4663086 5.0991211-5.4663086 8.8446045 0 5.4613037 4.4272461 9.8885498 9.8885498 9.8885498h30.1114502l6.1713867-16.4571533-30.1713867-7.5428467z" fill="#feea01"/><path d="m354.5336914 469.2668457-10.5336914-5.2668457-29.2570801 7.314209 6.2570801 16.685791h29.1114502c5.4613037 0 9.8885498-4.4272461 9.8885498-9.8885498 0-3.7454834-2.1162109-7.1695557-5.4663086-8.8446045z" fill="#feea01"/><path d="m328 400-32-56s-16 8-40 8-40-8-40-8l-32 56-8 32 31.157959 15.5788574 8.842041-23.5788574 40-40 41 40 8.6842041 23.157959 30.3157959-15.157959z" fill="#35495e"/><path d="m40 360h-8.0000153c-8.8365478 0-15.9999847-7.1634216-15.9999847-15.9999695v-.000061c0-8.8365479 7.1634369-15.9999695 15.9999847-15.9999695h8.0000153z" fill="#fcc200"/><path d="m472 360h8.0000305c8.8365479 0 15.9999695-7.1634216 15.9999695-15.9999695v-.000061c0-8.8365479-7.1634216-15.9999695-15.9999695-15.9999695h-8.0000305z" fill="#fcc200"/><path d="m96.5 264.5-32.5-.5c-22.0913887 0-40 35.8172302-40 80s17.9086113 80 40 80l32.5.5z" fill="#f0615f"/><path d="m415.5 264.5 32.5-.5c22.0914001 0 40 35.8172302 40 80s-17.9085999 80-40 80l-32.5.5z" fill="#f0615f"/><ellipse cx="96" cy="344" fill="#e22526" rx="40" ry="80"/><ellipse cx="416" cy="344" fill="#e22526" rx="40" ry="80"/><path d="m408.0000305 360h-304.000061c-8.8365326 0-15.9999695-7.1634216-15.9999695-15.9999695v-.000061c0-8.8365479 7.1634369-15.9999695 15.9999847-15.9999695h304.000061c8.8365327 0 15.9999543 7.1634216 15.9999543 15.9999695v.000061c0 8.8365479-7.1634216 15.9999695-15.9999695 15.9999695z" fill="#fcc200"/><path d="m320 288v40h16v32h24l8-24-16-24-12.1413574-60.7067871c-2.2436218-11.2181854-12.0935974-19.2932129-23.5339356-19.2932129h-60.324707-60.324707c-11.4403381 0-21.2902985 8.0750275-23.5339355 19.2932129l-12.1413575 60.7067871-16 24 8 24h24v-32h16v-40z" fill="#fad6c6"/><path d="m312 296v-17h-112v17l12 24h88z" fill="#067b96"/><path d="m216 232 .0000458.0000763c16.4808807 32.9617767 63.5190277 32.9617767 79.9999237 0l.0000305-.0000763h16v16l4.0000305 4.0000153c11.0456848 11.0457001 11.0456848 28.9542694 0 39.9999542l-.000061.000061c-11.0456848 11.0456848-28.9542542 11.0456848-39.999939 0l-.000061-.000061c-11.0456848-11.0456848-28.9542694-11.0456848-39.9999542 0l-.0000305.000061c-11.0456848 11.0456848-28.9542847 11.0456848-39.9999695 0l-.0000305-.000061c-11.0456848-11.0456848-11.0456848-28.9542542 0-39.9999542l4.0000152-4.0000153v-16z" fill="#00a8e7"/></g></svg>